<mxfile host="app.diagrams.net" modified="2023-09-26T08:03:28.750Z" agent="Mozilla/5.0 (Macintosh; Intel Mac OS X 10_15_7) AppleWebKit/537.36 (KHTML, like Gecko) Chrome/117.0.0.0 Safari/537.36 Edg/117.0.2045.35" version="21.6.8" etag="7-pvpbKORvTNTC50yZOR" type="github">
  <diagram name="第 1 页" id="6wBXwBl5Z8HS61RYGkBm">
    <mxGraphModel>
      <root>
        <mxCell id="0" />
        <mxCell id="1" parent="0" />
      </root>
    </mxGraphModel>
  </diagram>
</mxfile>
